{
	"asset":{
		"generator":"Khronos glTF Blender I/O v3.6.27",
		"version":"2.0"
	},
	"extensionsUsed":[
		"KHR_materials_specular",
		"KHR_materials_ior"
	],
	"scene":0,
	"scenes":[
		{
			"name":"Scene",
			"nodes":[
				0
			]
		}
	],
	"nodes":[
		{
			"mesh":0,
			"name":"Curve",
			"rotation":[
				0.7071068286895752,
				0,
				0,
				0.7071068286895752
			],
			"translation":[
				0.006418460980057716,
				2.7031712532043457,
				0.030712701380252838
			]
		}
	],
	"materials":[
		{
			"doubleSided":true,
			"extensions":{
				"KHR_materials_specular":{
					"specularColorFactor":[
						1.4767090650419226,
						1.4767090650419226,
						1.4767090650419226
					]
				},
				"KHR_materials_ior":{
					"ior":1.4500000476837158
				}
			},
			"name":"MATERIALE VERDE ",
			"pbrMetallicRoughness":{
				"baseColorFactor":[
					0.17075352370738983,
					0.6144949197769165,
					0.03669032081961632,
					1
				],
				"metallicFactor":0,
				"roughnessFactor":0.4590908885002136
			}
		}
	],
	"meshes":[
		{
			"name":"Curve",
			"primitives":[
				{
					"attributes":{
						"POSITION":0,
						"NORMAL":1,
						"TEXCOORD_0":2
					},
					"indices":3,
					"material":0
				}
			]
		}
	],
	"accessors":[
		{
			"bufferView":0,
			"componentType":5126,
			"count":11322,
			"max":[
				1.4878405332565308,
				0.2537715435028076,
				2.487539052963257
			],
			"min":[
				-1.518813967704773,
				-0.2537715435028076,
				-1.6442573070526123
			],
			"type":"VEC3"
		},
		{
			"bufferView":1,
			"componentType":5126,
			"count":11322,
			"type":"VEC3"
		},
		{
			"bufferView":2,
			"componentType":5126,
			"count":11322,
			"type":"VEC2"
		},
		{
			"bufferView":3,
			"componentType":5123,
			"count":57912,
			"type":"SCALAR"
		}
	],
	"bufferViews":[
		{
			"buffer":0,
			"byteLength":135864,
			"byteOffset":0,
			"target":34962
		},
		{
			"buffer":0,
			"byteLength":135864,
			"byteOffset":135864,
			"target":34962
		},
		{
			"buffer":0,
			"byteLength":90576,
			"byteOffset":271728,
			"target":34962
		},
		{
			"buffer":0,
			"byteLength":115824,
			"byteOffset":362304,
			"target":34963
		}
	],
	"buffers":[
		{
			"byteLength":478128,
			"uri":"data:application/octet-stream;base64,"
		}
	]
}
